<?xml version="1.0" encoding="UTF-8"?>
<!DOCTYPE svg PUBLIC "-//W3C//DTD SVG 1.1//EN" "http://www.w3.org/Graphics/SVG/1.1/DTD/svg11.dtd">
<svg xmlns="http://www.w3.org/2000/svg" xmlns:xlink="http://www.w3.org/1999/xlink" version="1.1" width="60px" height="57px" viewBox="-0.5 -0.5 60 57" ><defs/><g><rect x="4.5" y="-3.5" width="49" height="56" rx="7.35" ry="7.35" fill="#a0522d" stroke="#6d1f00" transform="rotate(90,29,24.5)" pointer-events="none"/><rect x="0" y="5.5" width="7" height="50" rx="1.05" ry="1.05" fill="#2f3238" stroke="none" pointer-events="none"/><rect x="51" y="5.5" width="7" height="50" rx="1.05" ry="1.05" fill="#2f3238" stroke="none" pointer-events="none"/><rect x="12.5" y="32" width="14" height="5" rx="0.75" ry="0.75" fill="#ffffff" stroke="#000000" pointer-events="none"/><rect x="31.5" y="32" width="14" height="5" rx="0.75" ry="0.75" fill="#ffffff" stroke="#000000" pointer-events="none"/><rect x="12.5" y="5" width="14" height="5" rx="0.75" ry="0.75" fill="#ffffff" stroke="#000000" pointer-events="none"/><rect x="31.5" y="5" width="14" height="5" rx="0.75" ry="0.75" fill="#ffffff" stroke="#000000" pointer-events="none"/><rect x="1" y="13" width="55" height="10" rx="1.5" ry="1.5" fill="#2f3238" stroke="none" pointer-events="none"/><rect x="7" y="11" width="44" height="7" rx="1.05" ry="1.05" fill="#ffffff" stroke="#000000" pointer-events="none"/><rect x="3" y="40" width="55" height="10" rx="1.5" ry="1.5" fill="#2f3238" stroke="none" pointer-events="none"/><rect x="7" y="38" width="44" height="7" rx="1.05" ry="1.05" fill="#ffffff" stroke="#000000" pointer-events="none"/></g></svg>